<?xml version="1.0" encoding="utf-8"?>
<!-- Generator: Adobe Illustrator 25.0.1, SVG Export Plug-In . SVG Version: 6.00 Build 0)  -->
<svg version="1.1" id="Lager_1" xmlns="http://www.w3.org/2000/svg" xmlns:xlink="http://www.w3.org/1999/xlink" x="0px" y="0px"
	 viewBox="0 0 595.3 595.3" style="enable-background:new 0 0 595.3 595.3;" xml:space="preserve">
<style type="text/css">
	.st0{fill:#ED1C24;}
	.st1{fill:none;}
	.st2{fill:#FFFFFF;}
</style>
<g id="Laag_1">
	<rect class="st0" width="595.3" height="595.3"/>
	<rect y="280.8" class="st1" width="52.7" height="52.7"/>
	<rect x="542.6" y="270.5" class="st1" width="52.7" height="52.7"/>
	<rect x="262.6" y="191.8" class="st1" width="52.7" height="52.7"/>
	<rect x="262.6" y="350.5" class="st1" width="52.7" height="52.7"/>
	<g>
		<g>
			<path class="st2" d="M147.7,299.2c0,20.6-14.3,29.5-27.7,29.5c-15.1,0-26.7-11-26.7-28.6c0-18.6,12.2-29.5,27.6-29.5
				C136.9,270.6,147.7,282.2,147.7,299.2z M103.5,299.8c0,12.2,7,21.4,16.9,21.4c9.7,0,16.9-9.1,16.9-21.6c0-9.4-4.7-21.4-16.7-21.4
				C108.7,278.2,103.5,289.2,103.5,299.8z"/>
			<path class="st2" d="M231.7,317.1c3,2,8.3,4,13.3,4c7.4,0,10.8-3.7,10.8-8.3c0-4.8-2.9-7.5-10.3-10.2c-10-3.6-14.7-9.1-14.7-15.7
				c0-9,7.2-16.3,19.2-16.3c5.6,0,10.6,1.6,13.7,3.4l-2.5,7.4c-2.2-1.4-6.2-3.2-11.4-3.2c-6,0-9.3,3.4-9.3,7.6
				c0,4.6,3.3,6.7,10.6,9.4c9.7,3.7,14.6,8.5,14.6,16.8c0,9.8-7.6,16.7-20.8,16.7c-6.1,0-11.7-1.5-15.6-3.8L231.7,317.1z"/>
			<path class="st2" d="M281.7,245.9h10.1v81.6h-10.1V245.9z"/>
			<path class="st2" d="M359.6,299.2c0,20.6-14.3,29.5-27.7,29.5c-15.1,0-26.7-11-26.7-28.6c0-18.6,12.2-29.5,27.6-29.5
				C348.7,270.6,359.6,282.2,359.6,299.2z M315.4,299.8c0,12.2,7,21.4,16.9,21.4c9.7,0,16.9-9.1,16.9-21.6c0-9.4-4.7-21.4-16.7-21.4
				S315.4,289.2,315.4,299.8z"/>
			<path class="st2" d="M423,271.8c-0.2,4-0.5,8.5-0.5,15.3v32.3c0,12.8-2.5,20.6-7.9,25.4c-5.4,5.1-13.2,6.7-20.2,6.7
				c-6.7,0-14-1.6-18.5-4.6l2.5-7.7c3.7,2.3,9.4,4.4,16.3,4.4c10.3,0,17.9-5.4,17.9-19.4V318h-0.2c-3.1,5.2-9.1,9.3-17.7,9.3
				c-13.8,0-23.7-11.7-23.7-27.1c0-18.9,12.3-29.5,25.1-29.5c9.7,0,14.9,5.1,17.4,9.7h0.2l0.5-8.4h8.8L423,271.8L423,271.8z
				 M412.5,293.8c0-1.7-0.1-3.2-0.6-4.6c-1.8-5.9-6.8-10.7-14.1-10.7c-9.7,0-16.6,8.2-16.6,21c0,10.9,5.5,20,16.4,20
				c6.2,0,11.8-3.9,14-10.3c0.6-1.7,0.8-3.7,0.8-5.4v-10H412.5z"/>
			<path class="st2" d="M450.9,256.2c0.1,3.4-2.4,6.2-6.4,6.2c-3.6,0-6.1-2.8-6.1-6.2c0-3.6,2.6-6.3,6.3-6.3
				C448.5,249.9,450.9,252.7,450.9,256.2z M439.6,327.5v-55.6h10.1v55.6H439.6z"/>
			<path class="st2" d="M473.3,271.8l7.9,12c2.1,3.1,3.8,6,5.6,9.1h0.3c1.8-3.3,3.7-6.2,5.5-9.2l7.8-11.8h11l-19,26.9l19.5,28.7
				h-11.5l-8-12.5c-2.2-3.2-4-6.3-6-9.7h-0.2c-1.8,3.3-3.8,6.3-5.9,9.7l-8,12.5h-11.1l19.8-28.4l-18.9-27.2h11.2L473.3,271.8
				L473.3,271.8z"/>
		</g>
		<path class="st2" d="M163.3,290c0-7.1-0.2-12.9-0.5-18.2h9.1l0.5,9.5h0.2c4.1-6.8,10.7-10.8,19.8-10.8c13.4,0,23.6,11.4,23.6,28.3
			c0,20-12.2,29.9-25.3,29.9c-7.4,0-13.8-3.2-17.1-8.7h-0.2v30.2h-10V290H163.3z M173.3,304.8c0,1.5,0.2,2.9,0.5,4.1
			c1.8,7,7.9,11.8,15.2,11.8c10.7,0,16.9-8.7,16.9-21.5c0-11.2-5.9-20.7-16.6-20.7c-6.9,0-13.3,4.9-15.3,12.5
			c-0.3,1.3-0.7,2.8-0.7,4.1L173.3,304.8L173.3,304.8z"/>
	</g>
</g>
</svg>
